PathFileType	4	(X/Y/Z)	RUN4																																																													
DataRate	CameraRate	NumFrames	NumMarkers	Units	OrigDataRate	OrigDataStartFrame	OrigNumFrames																																																									
15	15	13	21	mm	15	289	577																																																									
Frame#	Time	SpineBase			SpineMid			Neck			Head			ShoulderLeft			ElbowLeft			WristLeft			HandLeft			ShoulderRight			ElbowRight			WristRight			HandRight			HipLeft			KneeLeft			AnkleLeft			FootLeft			HipRight			KneeRight			AnkleRight			FootRight			SpineShoulder		
		X1	Y1	Z1	X2	Y2	Z2	X3	Y3	Z3	X4	Y4	Z4	X5	Y5	Z5	X6	Y6	Z6	X7	Y7	Z7	X8	Y8	Z8	X9	Y9	Z9	X10	Y10	Z10	X11	Y11	Z11	X12	Y12	Z12	X13	Y13	Z13	X14	Y14	Z14	X15	Y15	Z15	X16	Y16	Z16	X17	Y17	Z17	X18	Y18	Z18	X19	Y19	Z19	X20	Y20	Z20	X21	Y21	Z21
																																																																
289	19.2	1048.009	674.1275	-159.88295	1037.296	1034.53893	-120.75945	1042.46	1382.3259	-81.18415	1043.143	1499.0318	-149.38075	945.055	1208.5254	-223.60325	821.837	944.13565	-279.82525	907.931	725.5388	-317.31285	928.528	666.9375	-326.84575	1179.1	1227.8351	0.96655	1274.93	972.25446	93.12015	1365.116	760.0461	57.87825	1382.262	683.5389	51.88555	1047.057	669.432	-210.86315	911.231	277.534	-240.48785	848.052	-116.973	-304.25355	974.472	-153.501	-295.62105	1124.861	691.491	-91.76625	1184.196	383.394	31.66255	1207.566	-137.587	135.92705	1321.746	-180.174	65.82055	1038.638	1297.1027	-91.28525
290	19.26666667	1037.405	672.6804	-178.46005	1022.477	1033.4868	-140.95165	1023.028	1381.9151	-101.46885	1026.614	1497.3863	-167.73225	925.639	1208.1821	-243.77895	802.392	943.86157	-299.85595	886.778	726.5938	-347.02295	921.198	667.5298	-345.97925	1159.192	1227.8642	-13.18315	1245.811	968.96502	86.68055	1339.547	754.3411	66.56905	1358.786	684.6943	63.22635	1037.046	669.6438	-230.32215	906.627	274.2871	-251.23585	846.113	-122.348	-304.69105	976.636	-150.858	-297.34305	1113.82	688.4749	-108.29435	1172.996	385.7085	11.03405	1208.592	-137.011	138.55715	1326.376	-180.27	73.23645	1020.35	1296.5072	-111.72185
291	19.33333333	1026.662	673.8782	-191.38435	1008.229	1034.07716	-158.31805	1004.901	1381.7265	-123.59425	1007.083	1499.3346	-188.39845	907.528	1208.0564	-265.78995	784.246	943.79971	-321.70635	864.751	702.9055	-391.48955	902.01	662.7351	-372.22895	1135.164	1229.3685	-31.26815	1215.859	970.17058	77.05105	1311.007	761.0647	69.96925	1330.422	688.5811	68.74985	1024.493	670.9851	-244.27725	900.656	272.4709	-263.65175	847.082	-126.893	-305.95335	979.081	-151.49	-303.33145	1104.643	689.3911	-119.83405	1165.677	383.6739	-6.28415	1208.071	-133.447	139.84845	1329.186	-177.669	79.73905	1003.236	1296.5197	-132.62335
292	19.4	983.167	675.7798	-217.17555	979.631	1034.36267	-180.92525	988.427	1381.2559	-142.21055	986.402	1503.1951	-208.20475	891.067	1207.6426	-284.31115	767.756	943.44481	-340.09795	855.507	684.6438	-402.51235	870.244	652.7401	-405.54435	1115.676	1232.5445	-44.09925	1181.029	972.25034	67.79835	1280.101	764.6371	70.68285	1298.202	691.5607	66.67355	986.538	674.2291	-264.80025	892.609	263.1746	-274.28355	845.286	-138.369	-304.78695	982.614	-145.564	-305.16795	1058.562	689.3124	-148.70615	1159.119	382.1125	-21.47265	1202.537	-122.638	130.05045	1324.691	-168.109	72.57025	984.013	1296.1713	-152.27755
293	19.46666667	974.966	677.7907	-224.91685	966.937	1036.6342	-193.18795	973.345	1383.4119	-158.86245	976.304	1505.1052	-228.42505	875.989	1209.8407	-300.88065	752.647	945.67223	-356.55635	814.027	727.9119	-439.66225	829.512	673.0658	-441.57925	1096.568	1235.8427	-55.74895	1156.508	972.85361	61.63885	1251.256	763.5297	66.89055	1265.378	694.4609	62.35935	975.578	676.8866	-274.69275	887.543	269.7108	-284.80855	843.531	-132.633	-312.48945	979.368	-147.115	-302.08455	1050.383	690.9935	-156.04145	1152.855	386.5131	-40.90615	1198.921	-120.048	125.85825	1323.241	-166.518	72.78815	969.233	1298.3813	-167.93305
294	19.53333333	958.895	682.0422	-236.98655	952.465	1039.64473	-207.93035	960.897	1385.3691	-176.30225	966.379	1505.7603	-240.90995	863.544	1211.8335	-318.23685	740.167	947.68993	-373.79055	800.593	698.3837	-458.79455	809.434	661.2559	-469.06455	1076.942	1239.1176	-67.75575	1120.526	976.1786	49.30565	1219.188	768.7575	61.90735	1231.914	697.3077	54.64005	963.448	680.565	-286.07295	882.281	264.8972	-292.70935	845.285	-139.053	-310.90695	979.735	-142.242	-330.88545	1029.497	695.4979	-168.29945	1147.553	390.3669	-52.50205	1190.765	-113.762	108.90595	1316.294	-159.923	57.46205	956.307	1300.5721	-184.64185
295	19.6	947.256	685.485	-244.29305	940.005	1041.99704	-219.90845	947.524	1386.5026	-193.83945	953.67	1508.3991	-261.88555	850.176	1213.0078	-335.69065	726.766	948.89862	-391.12535	776.088	719.001	-482.71475	787.648	672.2504	-500.60245	1057.662	1242.1296	-79.22325	1099.705	975.06665	43.08525	1189.709	764.1292	53.13735	1197.297	701.4426	45.38475	955.043	683.4128	-293.76955	878.702	265.9034	-295.71135	846.683	-138.851	-310.74635	980.833	-143.287	-330.84715	1014.511	699.3301	-174.79265	1139.401	391.0279	-63.24285	1180.069	-110.394	96.54225	1307.017	-156.457	47.36615	943.142	1302.0232	-200.75085
296	19.66666667	938.63	688.0957	-249.69135	931.259	1042.78162	-230.40775	938.684	1385.148	-210.20775	944.868	1509.6966	-271.63785	912.135	1199.1993	-392.36945	766.874	957.85552	-476.74855	762.524	733.54	-515.22025	770.952	677.5001	-531.09885	1041.684	1243.1542	-89.39845	1066.387	981.1687	29.58365	1165.258	774.1094	45.76695	1174.003	712.219	40.36215	946.385	686.3001	-308.02735	875.028	266.8939	-299.52895	848.674	-138.72	-309.62095	982.044	-144.016	-331.66825	1004.455	702.0823	-174.25985	1127.623	394.4568	-72.48465	1160.547	-114.03	77.47395	1301.485	-153.532	52.89015	934.303	1301.23	-215.61865
297	19.73333333	929.601	692.395	-255.07915	921.738	1045.07358	-240.04365	928.718	1385.4669	-223.43815	936.669	1510.237	-284.15915	911.205	1200.4351	-393.41725	764.542	961.79191	-482.11715	753.352	735.3848	-535.80005	757.259	681.4348	-559.63005	1028.513	1245.3732	-97.37505	1044.319	983.00857	21.19225	1145.418	777.0138	38.54265	1150.62	716.9723	30.49305	940.002	689.164	-315.31605	871.011	268.8673	-303.09905	855.156	-137.767	-312.35155	988.055	-150.33	-329.27485	993.988	707.2479	-175.86345	1114.002	395.2443	-80.60785	1142.444	-115.476	56.26735	1283.844	-154.754	32.89095	924.45	1302.0229	-228.04195
298	19.8	916.286	697.5891	-264.55805	909.9	1048.251	-252.98245	918.325	1387.0978	-238.83425	929.385	1512.5503	-296.64475	892.715	1211.6366	-412.99665	745.338	974.94606	-505.23955	743.463	735.4314	-562.12905	744.674	682.8644	-586.40255	1010.724	1247.0145	-106.74945	1019.515	989.17986	10.85165	1117.177	781.6732	27.57725	1128.291	718.7419	21.69285	930.309	693.0244	-325.11205	863.556	271.9218	-305.95645	856.292	-135.386	-313.46805	987.608	-154.928	-327.37935	977.563	713.3583	-183.70885	1099.196	397.3392	-86.10625	1123.199	-0.301	14.13115	1118.405	-72.02	-69.36785	913.719	1303.99	-242.89885
299	19.86666667	908.509	700.9413	-269.48615	903.081	1049.45613	-260.74965	912.046	1386.2294	-249.81165	924.435	1512.3112	-307.75515	886.303	1214.5882	-421.77455	740.882	976.52696	-514.10875	735.883	736.5908	-584.34205	739.011	684.9454	-610.87015	1001.343	1247.0913	-112.54555	1006.918	989.62655	6.03635	1102.468	781.2482	22.52405	1110.747	723.5484	14.20425	923.385	696.0482	-330.44125	861.295	273.5577	-307.50825	877.822	-134.602	-307.54945	996.186	-169.169	-337.72965	969.222	716.8048	-188.04655	1082.549	399.251	-91.39805	1108.208	1.167	6.88375	1116.945	-72.02	-70.32605	907.325	1303.6497	-253.03365
300	19.93333333	901.55	703.4807	-274.85635	896.241	1050.69096	-268.02255	905.581	1386.2721	-258.29055	920.015	1512.6412	-314.56615	880.971	1215.9364	-432.32315	733.778	981.36532	-529.62465	720.579	776.573	-612.83525	738.769	691.2606	-630.59905	990.125	1248.8164	-118.07665	988.897	990.65001	0.10035	1084.94	782.463	16.22515	1094.205	726.7941	7.98785	917.797	698.15	-336.52335	857.225	275.2017	-308.82965	866.283	-132.92	-307.32455	990.89	-168.763	-316.65135	960.744	719.724	-192.63675	1062.481	395.6692	-96.12525	1075.496	-4.005	-4.66045	1095.606	-82.145	-84.26205	900.754	1303.9622	-261.28925
301	20	893.496	705.5489	-279.14625	889.752	1051.56893	-274.80635	900.271	1386.1666	-267.77235	913.209	1513.6729	-323.61355	871.317	1222.4959	-442.67775	729.468	983.66559	-539.07145	721.775	776.7016	-618.60435	740.655	691.5371	-651.16025	980.242	1249.0783	-123.37435	974.923	994.56796	-6.14005	1069.607	785.9655	11.84875	1079.917	728.8606	2.46365	912.022	699.9661	-340.70715	854.276	276.198	-309.64115	866.924	-131.956	-310.53055	990.83	-171.176	-312.05135	950.244	721.8835	-196.86575	1042.187	386.808	-97.28095	1054.404	-13.853	-10.94085	1077.646	-88.584	-86.68375	895.169	1304.0885	-270.06675
